<svg width="68" height="14" viewBox="0 0 68 14" fill="none" xmlns="http://www.w3.org/2000/svg">
<path d="M0 7.07373C0 4.69141 1.98256 3.00012 4.75772 3.00012C6.54968 3.00012 7.96113 3.72014 8.57963 5.01495L6.66061 5.9703C6.4822 5.64093 6.20793 5.36445 5.86885 5.17214C5.52976 4.97984 5.13939 4.87939 4.74193 4.88216C3.48913 4.88216 2.50558 5.69102 2.50558 7.07341C2.50558 8.4558 3.48913 9.26466 4.74193 9.26466C5.14012 9.27079 5.53199 9.17173 5.87173 8.97905C6.21148 8.78637 6.48509 8.50802 6.66061 8.17652L8.57963 9.14716C7.96148 10.4117 6.54968 11.147 4.75772 11.147C1.98256 11.1467 0 9.45573 0 7.07373Z" fill="#603AF5"/>
<path d="M17.9072 3.11761V11.0292H15.5442V10.1171C14.926 10.8085 14.0221 11.1464 12.8799 11.1464C10.4691 11.1464 8.61432 9.55825 8.61432 7.07275C8.61432 4.58725 10.4688 2.99914 12.8799 2.99914C13.3547 2.97716 13.829 3.05122 14.2698 3.21618C14.7107 3.38115 15.1075 3.63308 15.4329 3.95449V3.11634L17.9072 3.11761ZM15.481 7.07307C15.481 5.70565 14.5294 4.88181 13.3082 4.88181C12.0719 4.88181 11.1196 5.70533 11.1196 7.07307C11.1196 8.44081 12.0712 9.26433 13.3082 9.26433C14.5294 9.26433 15.481 8.44113 15.481 7.07371V7.07307Z" fill="#603AF5"/>
<path d="M27.353 6.49983V11.0291H24.8804V6.85268C24.8804 5.57346 24.2461 4.98496 23.1512 4.98496C21.9616 4.98496 21.1055 5.66135 21.1055 7.11858V11.0301H18.6329V3.11758H20.9959V4.04395C21.3613 3.69618 21.8014 3.4235 22.2877 3.24362C22.774 3.06373 23.2957 2.98065 23.8188 2.99975C25.8302 2.99975 27.353 4.08758 27.353 6.49983Z" fill="#603AF5"/>
<path d="M31.1271 3.11755H33.5997V11.0291H31.1271V3.11755Z" fill="#603AF5"/>
<path d="M36.7526 2.95421V3.2924H38.9413V5.05693H36.8162V11.0275H34.3436V2.93892C34.3436 1.15974 35.517 -0.00195963 37.6404 -0.00195963C38.301 -0.0296803 38.9563 0.118267 39.5292 0.424446L38.8791 2.08612C38.585 1.89999 38.2361 1.80246 37.8801 1.80684C37.149 1.80779 36.7526 2.17624 36.7526 2.95421Z" fill="#603AF5"/>
<path d="M52.097 3.11755V9.70565C52.097 12.6465 50.4317 13.9996 47.4505 13.9996C45.8804 13.9996 44.358 13.6321 43.3748 12.9115L44.3584 11.2645C45.1895 11.8441 46.2031 12.1542 47.2431 12.1469C48.9083 12.1469 49.6219 11.4262 49.6219 9.99989V9.73494C49.2882 10.0348 48.8933 10.2699 48.4603 10.4265C48.0274 10.5831 47.5651 10.6581 47.1006 10.647C44.9597 10.647 43.4531 9.54419 43.4531 7.08799V3.11755H45.9278V6.74947C45.9278 8.08696 46.5621 8.67578 47.6562 8.67578C48.7981 8.67578 49.6226 7.99939 49.6226 6.54216V3.11755H52.097Z" fill="#603AF5"/>
<path d="M61.9854 3.11763V11.0292H59.6223V10.1171C59.0041 10.8085 58.1002 11.1464 56.958 11.1464C54.5476 11.1464 52.6924 9.55826 52.6924 7.07276C52.6924 4.58727 54.5469 2.99916 56.958 2.99916C57.4329 2.97712 57.9072 3.05116 58.3481 3.21613C58.7891 3.3811 59.186 3.63305 59.5114 3.95451V3.11635L61.9854 3.11763ZM59.5591 7.07309C59.5591 5.70566 58.6075 4.88183 57.3863 4.88183C56.15 4.88183 55.1977 5.70534 55.1977 7.07309C55.1977 8.44083 56.1493 9.26434 57.3863 9.26434C58.6078 9.26434 59.5591 8.44115 59.5591 7.07373V7.07309Z" fill="#603AF5"/>
<path d="M68 10.6454C67.403 10.9941 66.7068 11.1683 66.0016 11.1453C63.9717 11.1453 62.814 10.19 62.814 8.30732V1.36511H65.2887V3.29173H67.398V5.05626H65.288V8.27675C65.288 8.95313 65.6685 9.32094 66.3347 9.32094C66.6977 9.32283 67.0523 9.22012 67.3495 9.02701L68 10.6454Z" fill="#603AF5"/>
<path d="M42.5918 3.1593H40.1178V11.0709H42.5918V3.1593Z" fill="#603AF5"/>
<path d="M41.35 0.11145H41.3462C40.6392 0.11145 40.066 0.642898 40.066 1.29847C40.066 1.95404 40.6392 2.48549 41.3462 2.48549H41.35C42.0571 2.48549 42.6303 1.95404 42.6303 1.29847C42.6303 0.642898 42.0571 0.11145 41.35 0.11145Z" fill="#603AF5"/>
<path d="M30.4784 0.117432H28.0288V11.0272H30.4784V0.117432Z" fill="#603AF5"/>
</svg>
